{
  "accessors": [
    {
      "bufferView": 2,
      "componentType": 5126,
      "count": 65532,
      "max": [
        0.95524001121521,
        1.9802500009536743,
        6.561470031738281
      ],
      "min": [
        -1.6667900085449219,
        -0.7998499870300293,
        0.011049999855458736
      ],
      "type": "VEC3"
    },
    {
      "bufferView": 2,
      "byteOffset": 786384,
      "componentType": 5126,
      "count": 65532,
      "max": [
        0.9999999403953552,
        0.9999995827674866,
        0.9999997019767761
      ],
      "min": [
        -0.9999999403953552,
        -0.999999463558197,
        -1.0
      ],
      "type": "VEC3"
    },
    {
      "bufferView": 1,
      "componentType": 5126,
      "count": 65532,
      "max": [
        0.9996299743652344,
        0.749970018863678
      ],
      "min": [
        0.0002699999895412475,
        0.5072699785232544
      ],
      "type": "VEC2"
    },
    {
      "bufferView": 0,
      "componentType": 5125,
      "count": 272130,
      "type": "SCALAR"
    },
    {
      "bufferView": 2,
      "byteOffset": 1572768,
      "componentType": 5126,
      "count": 65532,
      "max": [
        1.6157699823379517,
        1.3320800065994263,
        6.561530113220215
      ],
      "min": [
        -1.560610055923462,
        -1.4960999488830566,
        0.010990000329911709
      ],
      "type": "VEC3"
    },
    {
      "bufferView": 2,
      "byteOffset": 2359152,
      "componentType": 5126,
      "count": 65532,
      "max": [
        0.9999980330467224,
        0.9999988675117493,
        0.9999241828918457
      ],
      "min": [
        -0.9999919533729553,
        -0.9999992251396179,
        -1.0
      ],
      "type": "VEC3"
    },
    {
      "bufferView": 1,
      "byteOffset": 524256,
      "componentType": 5126,
      "count": 65532,
      "max": [
        0.9995899796485901,
        0.5532000064849854
      ],
      "min": [
        0.0002899999963119626,
        0.0719899982213974
      ],
      "type": "VEC2"
    },
    {
      "bufferView": 0,
      "byteOffset": 1088520,
      "componentType": 5125,
      "count": 267948,
      "type": "SCALAR"
    },
    {
      "bufferView": 2,
      "byteOffset": 3145536,
      "componentType": 5126,
      "count": 65532,
      "max": [
        1.6150399446487427,
        1.9796799421310425,
        6.561530113220215
      ],
      "min": [
        -1.6672999858856201,
        -1.496940016746521,
        0.010739999823272228
      ],
      "type": "VEC3"
    },
    {
      "bufferView": 2,
      "byteOffset": 3931920,
      "componentType": 5126,
      "count": 65532,
      "max": [
        0.999999463558197,
        0.9999998211860657,
        0.9999338388442993
      ],
      "min": [
        -0.9999997019767761,
        -0.9999999403953552,
        -1.0
      ],
      "type": "VEC3"
    },
    {
      "bufferView": 1,
      "byteOffset": 1048512,
      "componentType": 5126,
      "count": 65532,
      "max": [
        0.9996200203895569,
        0.4356600046157837
      ],
      "min": [
        0.00026000000070780516,
        0.0005000000237487257
      ],
      "type": "VEC2"
    },
    {
      "bufferView": 0,
      "byteOffset": 2160312,
      "componentType": 5125,
      "count": 238329,
      "type": "SCALAR"
    },
    {
      "bufferView": 2,
      "byteOffset": 4718304,
      "componentType": 5126,
      "count": 64832,
      "max": [
        0.4822700023651123,
        1.979259967803955,
        5.028339862823486
      ],
      "min": [
        -1.6667900085449219,
        -0.8110600113868713,
        0.011049999855458736
      ],
      "type": "VEC3"
    },
    {
      "bufferView": 2,
      "byteOffset": 5496288,
      "componentType": 5126,
      "count": 64832,
      "max": [
        0.9999917149543762,
        0.9999995827674866,
        0.999952495098114
      ],
      "min": [
        -0.9999937415122986,
        -0.9999991059303284,
        -1.0
      ],
      "type": "VEC3"
    },
    {
      "bufferView": 1,
      "byteOffset": 1572768,
      "componentType": 5126,
      "count": 64832,
      "max": [
        0.999530017375946,
        0.5645800232887268
      ],
      "min": [
        0.00026000000070780516,
        0.3617900013923645
      ],
      "type": "VEC2"
    },
    {
      "bufferView": 0,
      "byteOffset": 3113628,
      "componentType": 5125,
      "count": 265896,
      "type": "SCALAR"
    }
  ],
  "asset": {
    "extras": {
      "author": "misterdevious (https://sketchfab.com/misterdevious)",
      "license": "CC-BY-NC-SA-4.0 (http://creativecommons.org/licenses/by-nc-sa/4.0/)",
      "source": "https://sketchfab.com/3d-models/cemetery-statuary-lape-ea9eac9cee4b4397aad409f8c522467e",
      "title": "Cemetery Statuary - Lape"
    },
    "generator": "Sketchfab-12.66.0",
    "version": "2.0"
  },
  "bufferViews": [
    {
      "buffer": 0,
      "byteLength": 4177212,
      "name": "floatBufferViews",
      "target": 34963
    },
    {
      "buffer": 0,
      "byteLength": 2091424,
      "byteOffset": 4177212,
      "byteStride": 8,
      "name": "floatBufferViews",
      "target": 34962
    },
    {
      "buffer": 0,
      "byteLength": 6274272,
      "byteOffset": 6268636,
      "byteStride": 12,
      "name": "floatBufferViews",
      "target": 34962
    }
  ],
  "buffers": [
    {
      "byteLength": 12542908,
      "uri": "scene.bin"
    }
  ],
  "images": [
    {
      "uri": "textures/lape.298cam.norm_Material_u1_v1_baseColor.png"
    }
  ],
  "materials": [
    {
      "doubleSided": true,
      "name": "lape.298cam.norm_Material_u1_v1",
      "pbrMetallicRoughness": {
        "baseColorTexture": {
          "index": 0
        },
        "metallicFactor": 0.0,
        "roughnessFactor": 0.6
      }
    }
  ],
  "meshes": [
    {
      "name": "default_0",
      "primitives": [
        {
          "attributes": {
            "NORMAL": 1,
            "POSITION": 0,
            "TEXCOORD_0": 2
          },
          "indices": 3,
          "material": 0,
          "mode": 4
        }
      ]
    },
    {
      "name": "default_0",
      "primitives": [
        {
          "attributes": {
            "NORMAL": 5,
            "POSITION": 4,
            "TEXCOORD_0": 6
          },
          "indices": 7,
          "material": 0,
          "mode": 4
        }
      ]
    },
    {
      "name": "default_0",
      "primitives": [
        {
          "attributes": {
            "NORMAL": 9,
            "POSITION": 8,
            "TEXCOORD_0": 10
          },
          "indices": 11,
          "material": 0,
          "mode": 4
        }
      ]
    },
    {
      "name": "default_0",
      "primitives": [
        {
          "attributes": {
            "NORMAL": 13,
            "POSITION": 12,
            "TEXCOORD_0": 14
          },
          "indices": 15,
          "material": 0,
          "mode": 4
        }
      ]
    }
  ],
  "nodes": [
    {
      "children": [
        1
      ],
      "matrix": [
        1.0,
        0.0,
        0.0,
        0.0,
        0.0,
        2.220446049250313e-16,
        -1.0,
        0.0,
        0.0,
        1.0,
        2.220446049250313e-16,
        0.0,
        0.0,
        0.0,
        0.0,
        1.0
      ],
      "name": "Sketchfab_model"
    },
    {
      "children": [
        2,
        4
      ],
      "name": "Root"
    },
    {
      "children": [
        3
      ],
      "matrix": [
        -0.29086000000000006,
        0.9551700000000001,
        -0.05519000000000001,
        0.0,
        -0.7711,
        -0.19988000000000003,
        0.6045200000000001,
        0.0,
        0.5663900000000001,
        0.21839000000000003,
        0.7946700000000001,
        0.0,
        0.9896900000000001,
        -2.0151999999999997,
        5.293220000000001,
        1.0
      ],
      "name": "Lamp"
    },
    {
      "name": "Lamp"
    },
    {
      "children": [
        5,
        6,
        7,
        8
      ],
      "matrix": [
        0.6000000000000001,
        0.0,
        0.0,
        0.0,
        0.0,
        0.6000000000000001,
        0.0,
        0.0,
        0.0,
        0.0,
        0.6000000000000001,
        0.0,
        0.0,
        0.0,
        0.0,
        1.0
      ],
      "name": "default"
    },
    {
      "mesh": 0,
      "name": "default_0"
    },
    {
      "mesh": 1,
      "name": "default_0"
    },
    {
      "mesh": 2,
      "name": "default_0"
    },
    {
      "mesh": 3,
      "name": "default_0"
    }
  ],
  "samplers": [
    {
      "magFilter": 9729,
      "minFilter": 9987,
      "wrapS": 10497,
      "wrapT": 10497
    }
  ],
  "scene": 0,
  "scenes": [
    {
      "name": "Sketchfab_Scene",
      "nodes": [
        0
      ]
    }
  ],
  "textures": [
    {
      "sampler": 0,
      "source": 0
    }
  ]
}
